<?xml version="1.0" encoding="UTF-8" standalone="no"?>
<svg
   height="16px"
   viewBox="0 0 16 16"
   width="16px"
   version="1.1"
   id="svg2"
   sodipodi:docname="window-close-symbolic.svg"
   xml:space="preserve"
   inkscape:version="1.3.2 (091e20ef0f, 2023-11-25)"
   xmlns:inkscape="http://www.inkscape.org/namespaces/inkscape"
   xmlns:sodipodi="http://sodipodi.sourceforge.net/DTD/sodipodi-0.dtd"
   xmlns="http://www.w3.org/2000/svg"
   xmlns:svg="http://www.w3.org/2000/svg"><defs
     id="defs2" /><sodipodi:namedview
     id="namedview2"
     pagecolor="#ffffff"
     bordercolor="#000000"
     borderopacity="0.25"
     inkscape:showpageshadow="2"
     inkscape:pageopacity="0.0"
     inkscape:pagecheckerboard="0"
     inkscape:deskcolor="#d1d1d1"
     inkscape:zoom="32"
     inkscape:cx="9.15625"
     inkscape:cy="7.234375"
     inkscape:window-width="1920"
     inkscape:window-height="1011"
     inkscape:window-x="0"
     inkscape:window-y="0"
     inkscape:window-maximized="1"
     inkscape:current-layer="svg2" /><path
     d="M 3,0 C 1.355469,0 0,1.355469 0,3 v 8 c 0,1.644531 1.355469,3 3,3 H 6 C 6.550781,14 7,13.550781 7,13 7,12.449219 6.550781,12 6,12 H 3 C 2.429688,12 2,11.570312 2,11 V 5 C 2,4.445312 2.445312,4 3,4 h 10 c 0.554688,0 1,0.445312 1,1 v 1.3940032 c 0,0.550781 0.449219,1 1,1 0.550781,0 1,-0.4589728 1,-1.0097538 V 3 C 16,1.355469 14.644531,0 13,0 Z"
     fill="#2e3434"
     id="path1"
     sodipodi:nodetypes="sssssssssssssssssss" /><path
     d="m 8.7910814,8.1311222 c -0.1742069,0 -0.3407281,0.06917 -0.4636977,0.1921402 -0.2561867,0.2561867 -0.2561867,0.6712087 0,0.9273953 L 10.560301,12.06615 8.3273837,14.881641 c -0.2251294,0.283867 -0.2561867,0.671208 0,0.927396 0.2561867,0.256187 0.6712088,0.256187 0.9273955,0 l 2.8154908,-2.232977 2.815491,2.232977 c 0.283864,0.225134 0.671208,0.256187 0.927396,0 0.256187,-0.256188 0.256187,-0.671209 0,-0.927396 L 13.58018,12.06615 15.813157,9.2506577 c 0.225134,-0.2838633 0.256187,-0.6712086 0,-0.9273953 -0.12297,-0.1229696 -0.289491,-0.1921402 -0.463697,-0.1921402 -0.174208,0 -0.340729,0.06917 -0.463699,0.1921402 L 12.07027,10.55624 9.2547792,8.3232624 C 9.1185248,8.2151986 8.9652884,8.1311222 8.7910814,8.1311222 Z"
     fill="#2e3436"
     id="path1-7"
     style="stroke-width:0.655837"
     sodipodi:nodetypes="ssscssscssscsssscss" /></svg>
